<svg width="1000" height="753" viewBox="0 0 1000 753" fill="none" xmlns="http://www.w3.org/2000/svg">
<path d="M163.473 274.988C179.846 268.898 197.805 265.498 215.945 267C234.17 268.479 250.852 275.733 265.19 284.84C272.371 289.476 279.025 294.717 285.159 300.389C288.229 303.213 291.184 306.187 293.963 309.102L302.312 318.428C313.084 331.268 321.567 346.047 327.277 361.638C333.066 377.235 336.099 393.505 337.661 409.612C339.356 425.736 339.472 441.812 338.981 457.718C337.758 489.5 334.943 520.846 335.197 551.762C335.37 574.82 337.512 597.953 344.401 619.063C364.565 599.511 384.311 576.669 409.163 556.664C422.738 546.187 437.645 535.953 454.98 530.535C472.085 524.785 490.323 523.942 507.646 526.76C525.03 529.796 540.767 537.437 554.342 546.793C567.886 556.313 580.069 566.923 591.416 578.163C602.708 589.452 613.516 600.989 624.275 612.478C630.393 619.144 636.568 625.723 642.824 632.194C645.175 629.4 647.452 626.549 649.645 623.634C667.192 600.632 680.707 574.897 690.649 547.223C700.755 519.525 707.361 490.354 714.469 459.354C718.26 443.745 721.784 427.747 728.438 410.041C731.714 401.285 736.225 391.73 743.302 382.023C750.266 372.418 761.346 362.274 774.988 356.966C781.806 354.173 788.491 353.003 795.248 352.058C801.557 351.737 808.205 351.476 813.836 352.355C825.758 353.548 835.706 356.84 845.243 360.403C863.922 367.777 879.296 378.029 893.361 389.033C921.147 411.363 943.95 437.401 961.642 466.789C979.353 496.087 991.693 528.754 997.294 562.911C1000.08 579.981 1000.73 597.487 999.164 614.786C997.238 632.026 993 649.332 984.317 664.414L984.33 664.426C967.073 694.627 939.548 715.205 909.969 729.075C880.01 742.558 846.938 748.229 814.193 746.145C797.839 745.169 781.485 742.267 766.003 736.91C750.502 731.62 735.776 724.458 722.008 715.981C700.883 702.686 681.918 686.805 664.173 669.912C658.034 675.462 651.662 680.727 645.135 685.726C631.832 696.033 617.663 705.17 602.677 712.908C572.615 728.16 539.858 738.437 505.06 738.571C487.889 738.177 471.722 736.008 455.519 732.233C439.407 728.476 423.665 723.004 408.631 715.823C391.846 707.775 376.118 696.822 362.901 683.409C358.159 688.663 353.153 693.824 347.833 698.821C341.251 704.904 334.083 710.655 326.575 716.06C322.712 718.635 318.751 721.119 314.773 723.555C310.632 725.773 306.624 728.233 302.331 730.197C285.195 738.092 266.855 743.6 248.514 746.067C230.205 748.678 211.792 748.466 193.543 746.509C175.378 744.479 157.189 739.794 139.993 732.838C122.797 726.058 106.709 716.847 92.2078 705.909C63.1747 683.938 40.3419 655.652 23.9695 623.991C15.9104 608.097 9.20165 591.167 5.12671 573.146C0.900424 555.301 -0.456677 537.08 0.130615 519.265C0.699773 501.426 3.19477 483.926 7.16675 466.965C11.2599 450.017 17.3085 433.795 24.2898 418.192C31.3255 402.601 39.5122 387.658 48.7458 373.443C57.9856 359.221 68.7031 346.035 80.2195 333.643C91.8265 321.318 104.457 309.908 118.256 299.862C132.03 289.815 147.028 281.077 163.473 274.988ZM819.582 422.482C809.361 417.707 799.928 416.877 798.19 417.828C797.082 418.059 795.659 418.331 793.044 421.107C790.537 423.833 787.504 428.251 784.84 434.031C779.318 445.338 774.637 459.802 770.059 474.466C760.916 504.158 751.374 535.952 737.52 566.462C723.915 597.056 705.617 626.451 682.591 651.507C679.452 654.996 676.209 658.386 672.88 661.681C690.321 677.755 708.75 692.552 729.097 703.995C755.66 718.884 784.978 728.421 815.041 729.257C830.021 729.996 845.134 728.585 859.914 725.767C874.675 722.87 889.304 719.017 903.176 713.248C917.114 707.74 930.453 700.499 941.837 690.986C953.468 681.793 962.466 669.643 967.903 656.536L967.909 656.549C972.789 643.176 974.467 628.833 972.59 614.69C971.1 600.529 966.304 586.749 960.407 573.63C954.461 560.493 946.971 547.98 938.585 536.134C930.405 524.179 921.365 512.835 912.174 501.771L898.017 485.537L890.661 477.739C888.197 475.163 885.574 472.751 883.171 470.146C873.277 459.984 862.553 450.852 851.854 442.532C841.125 434.304 829.863 427.378 819.582 422.482ZM504.861 548.083C491.11 547.241 477.359 550.817 465.806 557.324C454.096 563.602 444.142 573.085 434.987 583.847C416.804 605.843 402.006 633.262 382.171 659.96C379.911 662.946 377.589 665.932 375.202 668.91C387.351 680.552 401.943 689.786 417.482 696.463C431.003 702.395 445.511 706.176 460.194 708.539C474.798 710.872 490.063 711.903 504.31 711.018C518.242 709.945 532.586 706.407 546.185 701.426C559.827 696.409 572.966 689.936 585.348 682.198C597.718 674.467 609.41 665.511 620.164 655.615C625.396 650.835 630.445 645.883 635.252 640.73L615.817 620.573C604.888 609.321 593.91 598.183 582.279 587.967C570.696 577.757 558.749 567.977 545.61 560.826C539.065 557.288 532.423 554.07 525.581 551.865C522.184 550.689 518.721 549.768 515.233 549.278C513.496 548.993 511.782 548.611 510.056 548.393L504.861 548.083ZM214.771 291.59C201.323 291.305 187.814 295.705 175.208 301.849C162.559 308.102 150.783 316.695 140.017 326.469C129.361 336.413 119.793 347.629 111.153 359.488C93.9756 383.319 80.685 409.92 71.7419 437.327C62.6414 464.65 58.5667 493.342 61.3337 520.119C62.7869 533.474 65.7235 546.278 70.531 557.894C75.1085 569.383 81.5997 580.332 89.0291 590.646C96.3372 601.013 105.038 610.296 113.781 618.78C115.918 620.967 118.256 622.906 120.539 624.864C122.761 626.9 125.165 628.663 127.526 630.445C129.778 632.365 132.121 634.081 134.47 635.759C136.753 637.553 139.169 639.073 141.579 640.558C151.303 646.375 160.761 651.677 170.758 655.137C175.813 656.906 180.501 658.47 185.647 659.767C188.202 660.476 190.788 661.197 193.452 661.742C196.08 662.463 198.756 663.124 201.469 663.705C204.187 664.275 206.936 664.747 209.721 665.159C212.501 665.729 215.316 666.262 218.168 666.674C223.859 667.395 229.757 668.135 235.654 668.498C247.455 669.28 259.335 668.856 271.39 666.226C292.299 661.843 311.71 648.555 330.516 631.943C326.792 621.546 324.223 610.822 322.554 600.111C320.023 583.914 319.43 567.704 319.666 551.713C320.18 519.713 324.08 488.415 324.564 457.336C324.915 441.818 324.649 426.378 322.918 411.236C321.071 396.117 317.528 381.356 311.873 367.643C306.23 353.924 298.329 341.351 288.471 330.474C285.874 327.844 283.458 325.16 280.739 322.567C277.923 319.973 275.174 317.537 272.304 315.216C266.589 310.575 260.558 306.436 254.291 302.94C241.769 295.977 228.189 291.651 214.771 291.59ZM500.114 251.916C536.558 250.898 565.961 286.225 562.558 320.879H562.564C565.713 355.418 536.365 390.454 500.114 389.448C417.18 386.843 417.392 254.643 500.114 251.916ZM545.217 320.879C541.856 285.237 497.492 271.609 470.511 291.248C450.155 304.749 450.24 336.967 470.409 350.614C497.305 370.846 542.225 356.727 545.217 320.879ZM724.751 207.182C667.998 146.532 761.401 53.3726 821.926 109.932C848.416 135 844.244 180.792 817.354 202.885C795.181 229.535 749.667 233.54 724.751 207.182ZM773.195 116.785C749.26 111.926 726.561 134.771 731.175 158.694C735.904 192.033 777.646 213.841 805.087 190.603C827.895 163.026 806.152 121.991 773.195 116.785ZM169.607 49.6301C184.036 1.64481 247.54 -15.1158 281.587 22.9016C298.468 41.874 294.998 69.4448 289.143 91.9075C283.906 111.765 267.685 126.823 247.564 132.555C197.521 146.219 153.519 98.8455 169.607 49.6301ZM264.536 39.9651C238.675 17.0725 195.207 34.2515 196.128 69.4875C197.103 93.5073 218.846 114.491 243.483 111.964C252.257 111.122 260.721 107.819 267.836 102.323L267.376 101.864C293.218 84.2485 287.363 56.9497 264.53 39.9709L264.536 39.9651Z" fill="white"/>
</svg>
